# xmcd CD database file
#
# Track frame offsets:
#	187
#	13977
#	32045
#	52497
#	67135
#	84257
#	102865
#	116745
#	132072
#	149237
#
# Disc length: 2154 seconds
#
# Revision: 1
# Processed by: cddbd v1.5.2PL0 Copyright (c) Steve Scherf et al.
# Submitted via: CDex 1.70beta3
#
DISCID=9908680a
DTITLE=阿川泰子 - Ouro Do Manaus
DYEAR=1988
DGENRE=Jazz
TTITLE0=Keep This Heart (Acai)
TTITLE1=Away
TTITLE2=Without You (Sozinha)
TTITLE3=When He Finds Out (Meu Bem Meu Mal)
TTITLE4=Looks Like December (Anos Dourados)
TTITLE5=Surrender (Azul)
TTITLE6=We Can Try Love Again
TTITLE7=Fatal Attraction (Dom De Iludir)
TTITLE8=Where Are You Coming From
TTITLE9=Zanzibar
EXTD=YEAR: 1988
EXTT0=
EXTT1=
EXTT2=
EXTT3=
EXTT4=
EXTT5=
EXTT6=
EXTT7=
EXTT8=
EXTT9=
PLAYORDER=
